<mxfile host="app.diagrams.net" modified="2024-05-30T01:43:47.109Z" agent="Mozilla/5.0 (Macintosh; Intel Mac OS X 10_15_7) AppleWebKit/537.36 (KHTML, like Gecko) Chrome/125.0.0.0 Safari/537.36" etag="GPb2fb6JENIq9pIB2ngs" version="24.4.10" type="github">
  <diagram name="第 1 页" id="mKp64wX2IQI0ecRr8EnG">
    <mxGraphModel dx="1434" dy="870" grid="1" gridSize="10" guides="1" tooltips="1" connect="1" arrows="1" fold="1" page="1" pageScale="1" pageWidth="827" pageHeight="1169" math="0" shadow="0">
      <root>
        <mxCell id="0" />
        <mxCell id="1" parent="0" />
        <mxCell id="7zwLuKESkkTCxywWPtEc-15" style="edgeStyle=none;curved=1;rounded=0;orthogonalLoop=1;jettySize=auto;html=1;fontSize=12;startSize=8;endSize=8;" parent="1" source="7zwLuKESkkTCxywWPtEc-1" target="7zwLuKESkkTCxywWPtEc-11" edge="1">
          <mxGeometry relative="1" as="geometry" />
        </mxCell>
        <mxCell id="7zwLuKESkkTCxywWPtEc-1" value="lsp查询" style="rounded=0;whiteSpace=wrap;html=1;" parent="1" vertex="1">
          <mxGeometry x="80" y="90" width="120" height="50" as="geometry" />
        </mxCell>
        <mxCell id="7zwLuKESkkTCxywWPtEc-38" style="edgeStyle=none;curved=1;rounded=0;orthogonalLoop=1;jettySize=auto;html=1;fontSize=12;startSize=8;endSize=8;strokeWidth=2;strokeColor=#265926;" parent="1" source="7zwLuKESkkTCxywWPtEc-2" target="7zwLuKESkkTCxywWPtEc-36" edge="1">
          <mxGeometry relative="1" as="geometry" />
        </mxCell>
        <mxCell id="7zwLuKESkkTCxywWPtEc-41" style="edgeStyle=none;curved=1;rounded=0;orthogonalLoop=1;jettySize=auto;html=1;exitX=1;exitY=1;exitDx=0;exitDy=0;entryX=0.5;entryY=0;entryDx=0;entryDy=0;fontSize=12;startSize=8;endSize=8;" parent="1" source="7zwLuKESkkTCxywWPtEc-2" target="7zwLuKESkkTCxywWPtEc-29" edge="1">
          <mxGeometry relative="1" as="geometry" />
        </mxCell>
        <mxCell id="7zwLuKESkkTCxywWPtEc-2" value="lsp查询" style="rounded=0;whiteSpace=wrap;html=1;" parent="1" vertex="1">
          <mxGeometry x="40" y="600" width="120" height="50" as="geometry" />
        </mxCell>
        <mxCell id="7zwLuKESkkTCxywWPtEc-16" style="edgeStyle=none;curved=1;rounded=0;orthogonalLoop=1;jettySize=auto;html=1;entryX=1;entryY=0.5;entryDx=0;entryDy=0;fontSize=12;startSize=8;endSize=8;" parent="1" source="7zwLuKESkkTCxywWPtEc-3" target="7zwLuKESkkTCxywWPtEc-11" edge="1">
          <mxGeometry relative="1" as="geometry" />
        </mxCell>
        <mxCell id="7zwLuKESkkTCxywWPtEc-3" value="" style="rounded=1;whiteSpace=wrap;html=1;" parent="1" vertex="1">
          <mxGeometry x="390" y="150" width="70" height="260" as="geometry" />
        </mxCell>
        <mxCell id="7zwLuKESkkTCxywWPtEc-4" value="" style="rounded=1;whiteSpace=wrap;html=1;" parent="1" vertex="1">
          <mxGeometry x="510" y="150" width="70" height="260" as="geometry" />
        </mxCell>
        <mxCell id="7zwLuKESkkTCxywWPtEc-5" value="" style="rounded=1;whiteSpace=wrap;html=1;" parent="1" vertex="1">
          <mxGeometry x="630" y="150" width="70" height="260" as="geometry" />
        </mxCell>
        <mxCell id="7zwLuKESkkTCxywWPtEc-6" value="" style="whiteSpace=wrap;html=1;aspect=fixed;" parent="1" vertex="1">
          <mxGeometry x="405" y="170" width="40" height="40" as="geometry" />
        </mxCell>
        <mxCell id="7zwLuKESkkTCxywWPtEc-7" value="" style="whiteSpace=wrap;html=1;aspect=fixed;" parent="1" vertex="1">
          <mxGeometry x="525" y="170" width="40" height="40" as="geometry" />
        </mxCell>
        <mxCell id="7zwLuKESkkTCxywWPtEc-8" value="" style="whiteSpace=wrap;html=1;aspect=fixed;" parent="1" vertex="1">
          <mxGeometry x="645" y="170" width="40" height="40" as="geometry" />
        </mxCell>
        <mxCell id="7zwLuKESkkTCxywWPtEc-10" value="物业屏幕" style="rounded=0;whiteSpace=wrap;html=1;" parent="1" vertex="1">
          <mxGeometry x="30" y="410" width="220" height="100" as="geometry" />
        </mxCell>
        <mxCell id="7zwLuKESkkTCxywWPtEc-11" value="远望谷主机" style="shape=process;whiteSpace=wrap;html=1;backgroundOutline=1;" parent="1" vertex="1">
          <mxGeometry x="80" y="250" width="120" height="60" as="geometry" />
        </mxCell>
        <mxCell id="7zwLuKESkkTCxywWPtEc-13" style="edgeStyle=none;curved=1;rounded=0;orthogonalLoop=1;jettySize=auto;html=1;exitX=0.5;exitY=1;exitDx=0;exitDy=0;entryX=0.5;entryY=0;entryDx=0;entryDy=0;fontSize=12;startSize=8;endSize=8;" parent="1" source="7zwLuKESkkTCxywWPtEc-11" target="7zwLuKESkkTCxywWPtEc-10" edge="1">
          <mxGeometry relative="1" as="geometry" />
        </mxCell>
        <mxCell id="7zwLuKESkkTCxywWPtEc-14" value="" style="endArrow=none;dashed=1;html=1;rounded=0;fontSize=12;startSize=8;endSize=8;curved=1;strokeWidth=6;" parent="1" edge="1">
          <mxGeometry width="50" height="50" relative="1" as="geometry">
            <mxPoint x="10" y="560" as="sourcePoint" />
            <mxPoint x="820" y="560" as="targetPoint" />
          </mxGeometry>
        </mxCell>
        <mxCell id="7zwLuKESkkTCxywWPtEc-17" value="windows应用软件直接投屏" style="text;html=1;align=center;verticalAlign=middle;whiteSpace=wrap;rounded=0;fontSize=16;" parent="1" vertex="1">
          <mxGeometry x="50" y="350" width="200" height="30" as="geometry" />
        </mxCell>
        <mxCell id="7zwLuKESkkTCxywWPtEc-18" value="目前单机方案" style="ellipse;whiteSpace=wrap;html=1;" parent="1" vertex="1">
          <mxGeometry x="610" y="10" width="170" height="80" as="geometry" />
        </mxCell>
        <mxCell id="7zwLuKESkkTCxywWPtEc-19" value="双机备份方案" style="ellipse;whiteSpace=wrap;html=1;" parent="1" vertex="1">
          <mxGeometry x="645" y="570" width="170" height="80" as="geometry" />
        </mxCell>
        <mxCell id="7zwLuKESkkTCxywWPtEc-21" style="edgeStyle=none;curved=1;rounded=0;orthogonalLoop=1;jettySize=auto;html=1;entryX=1;entryY=0.5;entryDx=0;entryDy=0;fontSize=12;startSize=8;endSize=8;" parent="1" source="7zwLuKESkkTCxywWPtEc-22" target="7zwLuKESkkTCxywWPtEc-29" edge="1">
          <mxGeometry relative="1" as="geometry" />
        </mxCell>
        <mxCell id="7zwLuKESkkTCxywWPtEc-22" value="" style="rounded=1;whiteSpace=wrap;html=1;" parent="1" vertex="1">
          <mxGeometry x="410" y="800" width="70" height="260" as="geometry" />
        </mxCell>
        <mxCell id="7zwLuKESkkTCxywWPtEc-23" value="" style="rounded=1;whiteSpace=wrap;html=1;" parent="1" vertex="1">
          <mxGeometry x="530" y="800" width="70" height="260" as="geometry" />
        </mxCell>
        <mxCell id="7zwLuKESkkTCxywWPtEc-24" value="" style="rounded=1;whiteSpace=wrap;html=1;" parent="1" vertex="1">
          <mxGeometry x="650" y="800" width="70" height="260" as="geometry" />
        </mxCell>
        <mxCell id="7zwLuKESkkTCxywWPtEc-25" value="" style="whiteSpace=wrap;html=1;aspect=fixed;" parent="1" vertex="1">
          <mxGeometry x="425" y="820" width="40" height="40" as="geometry" />
        </mxCell>
        <mxCell id="7zwLuKESkkTCxywWPtEc-26" value="" style="whiteSpace=wrap;html=1;aspect=fixed;" parent="1" vertex="1">
          <mxGeometry x="545" y="820" width="40" height="40" as="geometry" />
        </mxCell>
        <mxCell id="7zwLuKESkkTCxywWPtEc-27" value="" style="whiteSpace=wrap;html=1;aspect=fixed;" parent="1" vertex="1">
          <mxGeometry x="665" y="820" width="40" height="40" as="geometry" />
        </mxCell>
        <mxCell id="7zwLuKESkkTCxywWPtEc-28" value="物业屏幕" style="rounded=0;whiteSpace=wrap;html=1;" parent="1" vertex="1">
          <mxGeometry y="1060" width="210" height="100" as="geometry" />
        </mxCell>
        <mxCell id="7zwLuKESkkTCxywWPtEc-39" style="edgeStyle=none;curved=1;rounded=0;orthogonalLoop=1;jettySize=auto;html=1;entryX=1;entryY=1;entryDx=0;entryDy=0;fontSize=12;startSize=8;endSize=8;strokeWidth=2;strokeColor=#a30505;" parent="1" source="7zwLuKESkkTCxywWPtEc-29" target="7zwLuKESkkTCxywWPtEc-36" edge="1">
          <mxGeometry relative="1" as="geometry" />
        </mxCell>
        <mxCell id="7zwLuKESkkTCxywWPtEc-29" value="远望谷主机" style="shape=process;whiteSpace=wrap;html=1;backgroundOutline=1;" parent="1" vertex="1">
          <mxGeometry x="250" y="900" width="120" height="60" as="geometry" />
        </mxCell>
        <mxCell id="7zwLuKESkkTCxywWPtEc-31" value="web页面直接在物业屏幕访问" style="text;html=1;align=center;verticalAlign=middle;whiteSpace=wrap;rounded=0;fontSize=16;" parent="1" vertex="1">
          <mxGeometry x="10" y="1000" width="220" height="30" as="geometry" />
        </mxCell>
        <mxCell id="7zwLuKESkkTCxywWPtEc-37" style="edgeStyle=none;curved=1;rounded=0;orthogonalLoop=1;jettySize=auto;html=1;entryX=1;entryY=0.5;entryDx=0;entryDy=0;fontSize=12;startSize=8;endSize=8;strokeWidth=2;strokeColor=#233e19;" parent="1" source="7zwLuKESkkTCxywWPtEc-32" target="7zwLuKESkkTCxywWPtEc-36" edge="1">
          <mxGeometry relative="1" as="geometry" />
        </mxCell>
        <mxCell id="7zwLuKESkkTCxywWPtEc-32" value="" style="shape=parallelogram;perimeter=parallelogramPerimeter;whiteSpace=wrap;html=1;fixedSize=1;" parent="1" vertex="1">
          <mxGeometry x="402.5" y="670" width="85" height="40" as="geometry" />
        </mxCell>
        <mxCell id="7zwLuKESkkTCxywWPtEc-33" value="" style="shape=parallelogram;perimeter=parallelogramPerimeter;whiteSpace=wrap;html=1;fixedSize=1;" parent="1" vertex="1">
          <mxGeometry x="522.5" y="670" width="85" height="40" as="geometry" />
        </mxCell>
        <mxCell id="7zwLuKESkkTCxywWPtEc-34" value="" style="shape=parallelogram;perimeter=parallelogramPerimeter;whiteSpace=wrap;html=1;fixedSize=1;" parent="1" vertex="1">
          <mxGeometry x="642.5" y="670" width="85" height="40" as="geometry" />
        </mxCell>
        <mxCell id="7zwLuKESkkTCxywWPtEc-42" style="edgeStyle=none;curved=1;rounded=0;orthogonalLoop=1;jettySize=auto;html=1;exitX=0.5;exitY=1;exitDx=0;exitDy=0;fontSize=12;startSize=8;endSize=8;strokeWidth=2;strokeColor=#589410;" parent="1" source="7zwLuKESkkTCxywWPtEc-36" target="7zwLuKESkkTCxywWPtEc-28" edge="1">
          <mxGeometry relative="1" as="geometry" />
        </mxCell>
        <mxCell id="7zwLuKESkkTCxywWPtEc-36" value="服务器" style="shape=process;whiteSpace=wrap;html=1;backgroundOutline=1;" parent="1" vertex="1">
          <mxGeometry x="40" y="710" width="120" height="60" as="geometry" />
        </mxCell>
        <mxCell id="7zwLuKESkkTCxywWPtEc-43" value="&lt;font color=&quot;#ff0000&quot;&gt;&amp;nbsp;单点故障&lt;/font&gt;" style="text;html=1;align=center;verticalAlign=middle;whiteSpace=wrap;rounded=0;fontSize=16;" parent="1" vertex="1">
          <mxGeometry x="100" y="290" width="80" height="30" as="geometry" />
        </mxCell>
        <mxCell id="7zwLuKESkkTCxywWPtEc-44" value="&lt;font color=&quot;#ff0000&quot;&gt;&amp;nbsp;单点故障&lt;/font&gt;" style="text;html=1;align=center;verticalAlign=middle;whiteSpace=wrap;rounded=0;fontSize=16;" parent="1" vertex="1">
          <mxGeometry x="90" y="160" width="80" height="30" as="geometry" />
        </mxCell>
        <mxCell id="7zwLuKESkkTCxywWPtEc-45" value="" style="endArrow=none;dashed=1;html=1;dashPattern=1 3;strokeWidth=2;rounded=0;fontSize=12;startSize=8;endSize=8;curved=1;" parent="1" edge="1">
          <mxGeometry width="50" height="50" relative="1" as="geometry">
            <mxPoint x="375" y="750" as="sourcePoint" />
            <mxPoint x="755" y="750" as="targetPoint" />
          </mxGeometry>
        </mxCell>
      </root>
    </mxGraphModel>
  </diagram>
</mxfile>
